PathFileType	4	(X/Y/Z)	 New Session 101.trc
DataRate	CameraRate	NumFrames	NumMarkers	Units	OrigDataRate	OrigDataStartFrame	OrigNumFrames
100	100	27	14	m	100	295	337
Frame#	Time	C7			T8			IJ			PX			AA			AC			AI			TS			SC			GH			LE			ME			US			RS			
		X1	Y1	Z1	X2	Y2	Z2	X3	Y3	Z3	X4	Y4	Z4	X5	Y5	Z5	X6	Y6	Z6	X7	Y7	Z7	X8	Y8	Z8	X9	Y9	Z9	X10	Y10	Z10	X11	Y11	Z11	X12	Y12	Z12	X13	Y13	Z13	X14	Y14	Z14	
295	2.9500	0.022665	0.106424	0.170160	0.030455	-0.108609	0.243430	0.000737	0.001957	0.008882	0.002703	-0.140555	-0.057393	0.221072	0.010785	0.150834	0.169947	0.054427	0.081368	0.107925	0.029895	0.210156	0.112567	-0.088506	0.240808	0.025733	0.010477	0.012800	0.232128	0.025515	0.111412	0.321168	-0.247264	0.038196	0.037226	-1.431969	-0.516150	0.407783	-0.495812	-0.055042	0.445108	-0.448573	-0.107428	
296	2.9600	0.022674	0.106417	0.170190	0.030458	-0.108589	0.243456	0.000715	0.001951	0.008919	0.002664	-0.140567	-0.057335	0.221066	0.010766	0.150836	0.169940	0.054407	0.081388	0.107930	0.029903	0.210179	0.112565	-0.088506	0.240829	0.025702	0.010470	0.012839	0.232127	0.025499	0.111421	0.321116	-0.247297	0.038221	0.037226	-1.431969	-0.516150	0.407718	-0.495845	-0.055048	0.445094	-0.448587	-0.107418	
297	2.9700	0.022678	0.106417	0.170221	0.030460	-0.108572	0.243485	0.000692	0.001945	0.008952	0.002630	-0.140582	-0.057278	0.221059	0.010753	0.150838	0.169931	0.054389	0.081401	0.107941	0.029906	0.210199	0.112564	-0.088505	0.240849	0.025664	0.010467	0.012876	0.232128	0.025488	0.111426	0.321060	-0.247329	0.038241	0.037226	-1.431969	-0.516150	0.407661	-0.495876	-0.055046	0.445048	-0.448607	-0.107423	
298	2.9800	0.022678	0.106420	0.170252	0.030457	-0.108566	0.243514	0.000670	0.001939	0.008982	0.002601	-0.140597	-0.057221	0.221055	0.010748	0.150844	0.169920	0.054376	0.081410	0.107952	0.029906	0.210217	0.112563	-0.088503	0.240868	0.025622	0.010468	0.012913	0.232130	0.025480	0.111430	0.321004	-0.247355	0.038252	0.037226	-1.431969	-0.516150	0.407612	-0.495903	-0.055033	0.444909	-0.448637	-0.107466	
299	2.9900	0.022677	0.106423	0.170278	0.030452	-0.108572	0.243539	0.000648	0.001934	0.009011	0.002575	-0.140610	-0.057165	0.221054	0.010750	0.150856	0.169909	0.054369	0.081416	0.107955	0.029903	0.210238	0.112564	-0.088500	0.240887	0.025576	0.010472	0.012949	0.232131	0.025476	0.111433	0.320955	-0.247370	0.038253	0.037226	-1.431969	-0.516150	0.407568	-0.495929	-0.055012	0.444662	-0.448677	-0.107551	
300	3.0000	0.022677	0.106425	0.170301	0.030444	-0.108579	0.243559	0.000630	0.001927	0.009038	0.002550	-0.140621	-0.057110	0.221053	0.010757	0.150871	0.169898	0.054368	0.081422	0.107947	0.029902	0.210261	0.112568	-0.088496	0.240907	0.025530	0.010477	0.012985	0.232130	0.025476	0.111436	0.320911	-0.247372	0.038247	0.037226	-1.431969	-0.516150	0.407525	-0.495953	-0.054987	0.444386	-0.448722	-0.107645	
301	3.0100	0.022678	0.106425	0.170321	0.030440	-0.108579	0.243576	0.000616	0.001919	0.009065	0.002525	-0.140629	-0.057057	0.221052	0.010769	0.150886	0.169888	0.054371	0.081430	0.107936	0.029907	0.210286	0.112574	-0.088490	0.240927	0.025488	0.010482	0.013022	0.232124	0.025478	0.111440	0.320871	-0.247360	0.038235	0.037226	-1.431969	-0.516150	0.407477	-0.495976	-0.054968	0.444195	-0.448757	-0.107703	
302	3.0200	0.022680	0.106424	0.170341	0.030443	-0.108573	0.243592	0.000606	0.001909	0.009092	0.002499	-0.140636	-0.057005	0.221051	0.010780	0.150898	0.169878	0.054378	0.081439	0.107934	0.029922	0.210307	0.112582	-0.088483	0.240948	0.025454	0.010485	0.013058	0.232116	0.025483	0.111443	0.320833	-0.247339	0.038221	0.037226	-1.431969	-0.516150	0.407418	-0.495998	-0.054961	0.444125	-0.448773	-0.107714	
303	3.0300	0.022681	0.106422	0.170360	0.030455	-0.108569	0.243616	0.000601	0.001896	0.009120	0.002474	-0.140646	-0.056955	0.221051	0.010789	0.150908	0.169869	0.054385	0.081450	0.107943	0.029943	0.210327	0.112594	-0.088475	0.240969	0.025428	0.010486	0.013093	0.232106	0.025489	0.111446	0.320797	-0.247318	0.038207	0.037226	-1.431969	-0.516150	0.407347	-0.496019	-0.054973	0.444133	-0.448776	-0.107699	
304	3.0400	0.022678	0.106419	0.170379	0.030468	-0.108569	0.243650	0.000596	0.001881	0.009150	0.002449	-0.140658	-0.056906	0.221054	0.010794	0.150917	0.169858	0.054391	0.081463	0.107956	0.029960	0.210345	0.112607	-0.088466	0.240991	0.025411	0.010483	0.013127	0.232096	0.025495	0.111448	0.320764	-0.247304	0.038194	0.037226	-1.431969	-0.516150	0.407266	-0.496040	-0.055000	0.444156	-0.448779	-0.107681	
305	3.0500	0.022671	0.106417	0.170397	0.030482	-0.108570	0.243690	0.000591	0.001864	0.009182	0.002425	-0.140673	-0.056859	0.221058	0.010798	0.150926	0.169848	0.054395	0.081477	0.107966	0.029965	0.210361	0.112622	-0.088457	0.241012	0.025401	0.010478	0.013161	0.232086	0.025502	0.111448	0.320739	-0.247299	0.038182	0.037226	-1.431969	-0.516150	0.407182	-0.496059	-0.055038	0.444177	-0.448785	-0.107663	
306	3.0600	0.022661	0.106417	0.170414	0.030500	-0.108571	0.243729	0.000582	0.001845	0.009216	0.002402	-0.140691	-0.056816	0.221064	0.010801	0.150932	0.169837	0.054397	0.081490	0.107966	0.029961	0.210376	0.112637	-0.088447	0.241033	0.025393	0.010471	0.013193	0.232078	0.025508	0.111446	0.320719	-0.247303	0.038171	0.037226	-1.431969	-0.516150	0.407101	-0.496076	-0.055082	0.444181	-0.448795	-0.107649	
307	3.0700	0.022651	0.106418	0.170430	0.030525	-0.108573	0.243765	0.000570	0.001824	0.009250	0.002381	-0.140709	-0.056776	0.221069	0.010806	0.150935	0.169828	0.054397	0.081501	0.107958	0.029959	0.210389	0.112651	-0.088436	0.241054	0.025385	0.010462	0.013224	0.232073	0.025516	0.111443	0.320700	-0.247312	0.038162	0.037226	-1.431969	-0.516150	0.407027	-0.496091	-0.055125	0.444160	-0.448805	-0.107646	
308	3.0800	0.022644	0.106421	0.170447	0.030550	-0.108571	0.243798	0.000556	0.001801	0.009284	0.002363	-0.140725	-0.056740	0.221073	0.010814	0.150933	0.169819	0.054397	0.081511	0.107951	0.029966	0.210401	0.112665	-0.088427	0.241075	0.025376	0.010451	0.013253	0.232070	0.025525	0.111438	0.320678	-0.247321	0.038156	0.037226	-1.431969	-0.516150	0.406963	-0.496101	-0.055165	0.444125	-0.448807	-0.107657	
309	3.0900	0.022643	0.106423	0.170464	0.030566	-0.108560	0.243826	0.000539	0.001777	0.009315	0.002349	-0.140737	-0.056706	0.221079	0.010824	0.150928	0.169812	0.054396	0.081518	0.107951	0.029978	0.210411	0.112677	-0.088417	0.241097	0.025364	0.010441	0.013279	0.232068	0.025535	0.111434	0.320652	-0.247326	0.038152	0.037226	-1.431969	-0.516150	0.406909	-0.496109	-0.055202	0.444092	-0.448797	-0.107678	
310	3.1000	0.022648	0.106426	0.170483	0.030574	-0.108543	0.243849	0.000522	0.001753	0.009343	0.002338	-0.140745	-0.056676	0.221087	0.010834	0.150924	0.169805	0.054396	0.081524	0.107959	0.029986	0.210420	0.112688	-0.088409	0.241119	0.025351	0.010433	0.013302	0.232067	0.025544	0.111431	0.320628	-0.247327	0.038148	0.037226	-1.431969	-0.516150	0.406866	-0.496112	-0.055236	0.444064	-0.448783	-0.107705	
311	3.1100	0.022656	0.106428	0.170501	0.030579	-0.108528	0.243867	0.000507	0.001729	0.009368	0.002330	-0.140749	-0.056649	0.221095	0.010843	0.150925	0.169799	0.054394	0.081529	0.107975	0.029986	0.210427	0.112698	-0.088401	0.241142	0.025338	0.010428	0.013323	0.232066	0.025552	0.111428	0.320615	-0.247330	0.038140	0.037226	-1.431969	-0.516150	0.406832	-0.496112	-0.055268	0.444036	-0.448775	-0.107736	
312	3.1200	0.022666	0.106431	0.170518	0.030587	-0.108523	0.243884	0.000494	0.001708	0.009390	0.002322	-0.140750	-0.056624	0.221100	0.010849	0.150932	0.169794	0.054391	0.081535	0.107993	0.029982	0.210432	0.112708	-0.088394	0.241167	0.025326	0.010425	0.013341	0.232068	0.025559	0.111426	0.320614	-0.247336	0.038129	0.037226	-1.431969	-0.516150	0.406805	-0.496110	-0.055300	0.444002	-0.448772	-0.107773	
313	3.1300	0.022676	0.106435	0.170533	0.030598	-0.108530	0.243905	0.000485	0.001692	0.009410	0.002313	-0.140749	-0.056603	0.221104	0.010856	0.150940	0.169789	0.054387	0.081544	0.108006	0.029982	0.210440	0.112718	-0.088388	0.241191	0.025317	0.010426	0.013358	0.232071	0.025564	0.111427	0.320620	-0.247343	0.038115	0.037226	-1.431969	-0.516150	0.406784	-0.496106	-0.055334	0.443965	-0.448770	-0.107816	
314	3.1400	0.022684	0.106439	0.170545	0.030611	-0.108545	0.243926	0.000478	0.001683	0.009429	0.002305	-0.140746	-0.056584	0.221110	0.010865	0.150948	0.169786	0.054382	0.081554	0.108015	0.029988	0.210451	0.112728	-0.088383	0.241215	0.025310	0.010431	0.013373	0.232076	0.025570	0.111429	0.320627	-0.247350	0.038102	0.037226	-1.431969	-0.516150	0.406768	-0.496100	-0.055370	0.443934	-0.448759	-0.107863	
315	3.1500	0.022691	0.106443	0.170556	0.030629	-0.108557	0.243939	0.000472	0.001681	0.009448	0.002299	-0.140743	-0.056565	0.221118	0.010876	0.150954	0.169783	0.054378	0.081567	0.108017	0.029998	0.210463	0.112739	-0.088379	0.241238	0.025306	0.010438	0.013387	0.232082	0.025574	0.111433	0.320629	-0.247352	0.038092	0.037226	-1.431969	-0.516150	0.406754	-0.496091	-0.055411	0.443917	-0.448735	-0.107910	
316	3.1600	0.022696	0.106445	0.170569	0.030652	-0.108559	0.243945	0.000467	0.001683	0.009466	0.002297	-0.140743	-0.056548	0.221128	0.010889	0.150961	0.169781	0.054375	0.081580	0.108017	0.030007	0.210477	0.112750	-0.088377	0.241259	0.025303	0.010447	0.013401	0.232088	0.025579	0.111438	0.320625	-0.247350	0.038085	0.037226	-1.431969	-0.516150	0.406742	-0.496080	-0.055455	0.443911	-0.448703	-0.107953	
317	3.1700	0.022702	0.106444	0.170583	0.030670	-0.108551	0.243950	0.000461	0.001688	0.009484	0.002300	-0.140745	-0.056532	0.221137	0.010899	0.150968	0.169780	0.054374	0.081593	0.108021	0.030015	0.210496	0.112762	-0.088376	0.241277	0.025300	0.010455	0.013415	0.232094	0.025582	0.111443	0.320619	-0.247349	0.038079	0.037226	-1.431969	-0.516150	0.406731	-0.496067	-0.055504	0.443906	-0.448670	-0.107993	
318	3.1800	0.022708	0.106441	0.170598	0.030680	-0.108543	0.243955	0.000452	0.001693	0.009501	0.002307	-0.140748	-0.056518	0.221142	0.010901	0.150975	0.169779	0.054372	0.081603	0.108030	0.030018	0.210519	0.112772	-0.088377	0.241292	0.025292	0.010460	0.013430	0.232098	0.025583	0.111448	0.320615	-0.247350	0.038071	0.037226	-1.431969	-0.516150	0.406723	-0.496052	-0.055557	0.443900	-0.448642	-0.108032	
319	3.1900	0.022714	0.106434	0.170612	0.030688	-0.108549	0.243959	0.000442	0.001695	0.009516	0.002315	-0.140751	-0.056508	0.221144	0.010896	0.150980	0.169777	0.054371	0.081609	0.108042	0.030015	0.210539	0.112781	-0.088379	0.241304	0.025279	0.010462	0.013447	0.232101	0.025583	0.111452	0.320616	-0.247354	0.038059	0.037226	-1.431969	-0.516150	0.406717	-0.496036	-0.055613	0.443896	-0.448617	-0.108074	
320	3.2000	0.022719	0.106426	0.170626	0.030700	-0.108567	0.243965	0.000431	0.001693	0.009528	0.002321	-0.140753	-0.056501	0.221146	0.010887	0.150982	0.169775	0.054370	0.081612	0.108052	0.030007	0.210547	0.112788	-0.088382	0.241313	0.025260	0.010460	0.013464	0.232101	0.025581	0.111456	0.320616	-0.247360	0.038040	0.238230	-0.283750	0.002627	0.406714	-0.496019	-0.055671	0.443897	-0.448591	-0.108122	
321	3.2100	0.022723	0.106419	0.170638	0.030713	-0.108581	0.243974	0.000421	0.001688	0.009537	0.002320	-0.140752	-0.056496	0.221148	0.010881	0.150981	0.169771	0.054370	0.081612	0.108056	0.029996	0.210547	0.112793	-0.088385	0.241320	0.025236	0.010454	0.013483	0.232099	0.025579	0.111459	0.320614	-0.247361	0.038013	0.037226	-1.431969	-0.516150	0.406713	-0.496000	-0.055729	0.443904	-0.448563	-0.108171	
